# xmcd
#
# Track frame offsets:
#	300
#	14702
#	47553
#	82767
#	106545
#	123437
#
# Disc length: 2133 seconds
#
# Revision: 1
# Processed by: cddbd v1.5.1PL2 Copyright (c) Steve Scherf et al.
# Submitted via: EasyCDDAExtractor 8.2.2.1
#
DISCID=3d085106
DTITLE=Peace and Quiet
DYEAR=1900
DGENRE=
TTITLE0=You Can Wait Till Tomorrow
TTITLE1=Margo's Leaving Song
TTITLE2=Country Thing
TTITLE3=Hear My Love
TTITLE4=Black Mountain
TTITLE5=Looney Tunes
EXTD=
EXTT0=
EXTT1=
EXTT2=
EXTT3=
EXTT4=
EXTT5=
PLAYORDER=
